<svg version="1.1" id="Layer_1" xmlns="http://www.w3.org/2000/svg" xmlns:xlink="http://www.w3.org/1999/xlink" x="0px" y="0px"
	 width="100%" viewBox="0 0 512 512" enable-background="new 0 0 512 512" xml:space="preserve">
<path fill="#FFFFFF" opacity="1.000000" stroke="none" 
	d="
M1.000001,314.000000 
	C1.000000,209.706268 1.000000,105.412537 1.000000,1.059402 
	C171.562271,1.059402 342.124573,1.059402 513.000000,1.059402 
	C513.000000,105.022438 513.000000,209.045181 512.604309,313.382904 
	C511.474030,308.562042 510.744812,303.425446 510.003876,298.290497 
	C507.345947,279.870026 501.589142,262.248932 492.722351,246.114944 
	C484.778229,231.659912 474.598633,218.419617 465.196808,204.787186 
	C462.006348,200.161118 457.611664,199.529724 452.074280,201.807281 
	C445.219513,195.327759 438.534760,189.153839 431.920380,182.549927 
	C432.557526,177.766647 431.955200,173.687866 427.783020,171.388245 
	C415.847046,164.809418 404.092682,157.791473 391.722412,152.137451 
	C375.595062,144.766205 358.535187,140.155930 340.854889,137.774979 
	C337.610626,137.338058 332.719940,138.821823 331.031433,133.415680 
	C323.431274,109.081688 295.177399,99.382217 272.894135,109.875160 
	C271.306549,110.622749 268.474731,110.260963 266.914612,109.295250 
	C252.475601,100.357414 230.983429,100.038818 217.481506,111.985085 
	C214.680695,114.463188 211.859314,115.106560 207.853699,114.145638 
	C187.080078,109.162079 168.273483,118.909050 160.362457,134.997925 
	C159.271286,134.997925 158.103775,135.076675 156.949646,134.985687 
	C146.088913,134.129547 136.403366,137.166382 128.021484,144.042023 
	C124.550728,146.889099 121.968590,151.180115 118.128685,153.152985 
	C102.903008,160.975632 87.634071,168.847366 74.781738,180.181961 
	C63.266499,190.337357 52.107704,201.128754 42.239433,212.857651 
	C31.378975,225.765869 22.941956,240.535416 16.390242,256.198761 
	C10.741627,269.702972 6.172434,283.547791 3.965275,298.097107 
	C3.156965,303.425385 1.998651,308.700592 1.000001,314.000000 
z"/>
<path fill="#FFFFFF" opacity="1.000000" stroke="none" 
	d="
M513.000000,392.000000 
	C513.000000,432.310822 513.000000,472.621674 513.000000,512.966248 
	C342.451019,512.966248 171.902008,512.966248 1.000000,512.966248 
	C1.000000,462.646332 1.000000,412.291809 1.381533,361.601746 
	C2.123136,363.005554 2.447502,364.753265 2.848966,366.483063 
	C5.850792,379.417084 13.424885,389.574646 23.409456,397.689453 
	C33.616173,405.984741 45.507870,410.985260 58.983463,410.987488 
	C202.120483,411.010986 345.257507,411.004730 488.394531,410.974060 
	C490.323303,410.973663 492.296631,410.740509 494.173340,410.295959 
	C504.064423,407.952789 509.206238,400.654968 513.000000,392.000000 
z"/>
<path fill="#020100" opacity="1.000000" stroke="none" 
	d="
M513.000000,391.531342 
	C509.206238,400.654968 504.064423,407.952789 494.173340,410.295959 
	C492.296631,410.740509 490.323303,410.973663 488.394531,410.974060 
	C345.257507,411.004730 202.120483,411.010986 58.983463,410.987488 
	C45.507870,410.985260 33.616173,405.984741 23.409456,397.689453 
	C13.424885,389.574646 5.850792,379.417084 2.848966,366.483063 
	C2.447502,364.753265 2.123136,363.005554 1.381533,361.133057 
	C1.000000,345.645782 1.000000,330.291534 1.000001,314.468658 
	C1.998651,308.700592 3.156965,303.425385 3.965275,298.097107 
	C6.172434,283.547791 10.741627,269.702972 16.390242,256.198761 
	C22.941956,240.535416 31.378975,225.765869 42.239433,212.857651 
	C52.107704,201.128754 63.266499,190.337357 74.781738,180.181961 
	C87.634071,168.847366 102.903008,160.975632 118.128685,153.152985 
	C121.968590,151.180115 124.550728,146.889099 128.021484,144.042023 
	C136.403366,137.166382 146.088913,134.129547 156.949646,134.985687 
	C158.103775,135.076675 159.271286,134.997925 160.362457,134.997925 
	C168.273483,118.909050 187.080078,109.162079 207.853699,114.145638 
	C211.859314,115.106560 214.680695,114.463188 217.481506,111.985085 
	C230.983429,100.038818 252.475601,100.357414 266.914612,109.295250 
	C268.474731,110.260963 271.306549,110.622749 272.894135,109.875160 
	C295.177399,99.382217 323.431274,109.081688 331.031433,133.415680 
	C332.719940,138.821823 337.610626,137.338058 340.854889,137.774979 
	C358.535187,140.155930 375.595062,144.766205 391.722412,152.137451 
	C404.092682,157.791473 415.847046,164.809418 427.783020,171.388245 
	C431.955200,173.687866 432.557526,177.766647 431.583832,182.619751 
	C425.977081,187.626251 423.825989,187.907516 417.983948,183.968430 
	C397.501831,170.158127 375.258575,160.469711 351.063721,155.488403 
	C335.573334,152.299194 319.944519,150.163406 303.587646,151.817413 
	C294.366364,152.630280 285.503967,152.965195 276.868103,154.541275 
	C239.533905,161.354874 207.081390,178.055664 179.874329,204.462875 
	C156.235962,227.406281 139.955383,254.886505 131.191193,286.756897 
	C125.703949,306.710846 124.618187,327.071564 124.916283,347.608826 
	C125.178253,365.657745 119.085945,381.154327 105.982544,393.752960 
	C105.465942,394.249664 105.115311,394.918945 104.491592,395.777222 
	C118.333618,395.777222 131.633453,395.777222 145.400909,395.850952 
	C258.465485,395.931580 371.062439,395.942108 483.659393,395.939148 
	C493.830505,395.938873 497.960541,391.842255 497.976593,381.779266 
	C498.001556,366.122314 498.441559,350.447540 497.836304,334.813995 
	C497.361511,322.549622 496.472931,310.164978 494.189056,298.133514 
	C488.331329,267.274628 474.487366,240.096024 454.064362,216.232834 
	C448.668671,209.928223 448.633514,208.553055 452.244263,202.112885 
	C457.611664,199.529724 462.006348,200.161118 465.196808,204.787186 
	C474.598633,218.419617 484.778229,231.659912 492.722351,246.114944 
	C501.589142,262.248932 507.345947,279.870026 510.003876,298.290497 
	C510.744812,303.425446 511.474030,308.562042 512.604309,313.848938 
	C513.000000,339.687561 513.000000,365.375122 513.000000,391.531342 
M61.540638,334.566345 
	C64.039581,330.304077 66.172562,325.759247 69.167618,321.880005 
	C71.126823,319.342407 71.314445,317.655914 69.950653,314.865631 
	C67.341270,309.526855 64.947571,304.039185 63.015221,298.423737 
	C60.464664,291.011749 58.613201,290.236725 52.284306,295.127594 
	C50.900303,296.197113 49.943432,297.819336 48.209354,299.745209 
	C47.476002,303.568024 45.280807,307.851501 46.310383,311.118774 
	C48.526211,318.150543 46.760754,322.575806 41.319534,327.138672 
	C35.866947,331.711090 35.325348,340.094421 38.857548,346.423767 
	C42.122482,352.274200 49.332199,355.688293 55.759613,354.608704 
	C58.844688,354.090546 60.301460,352.920654 60.178936,349.378571 
	C60.013676,344.601074 60.682575,339.794739 61.540638,334.566345 
M105.707268,368.697083 
	C107.039177,363.254700 108.452072,357.829468 109.614090,352.351044 
	C109.784821,351.546143 109.016495,350.093781 108.256386,349.607971 
	C99.112328,343.763733 89.887901,338.045197 80.258446,332.027679 
	C73.489120,338.200378 73.762939,346.344727 77.045990,355.814331 
	C77.473907,361.284271 73.438141,363.121368 69.541298,365.153564 
	C59.166336,370.564056 55.636459,383.102203 61.891491,392.740540 
	C62.751492,394.065704 64.682365,395.731689 65.948776,395.601318 
	C83.655151,393.778687 97.347572,385.784729 105.707268,368.697083 
M246.438736,118.410599 
	C237.626099,117.737503 230.101135,120.388863 224.157959,127.077820 
	C217.881729,134.141647 216.871353,134.373169 208.406784,130.556747 
	C195.431305,124.706505 180.439423,129.989609 173.994705,142.683472 
	C168.958633,152.602768 168.958633,152.602737 158.398178,150.602081 
	C148.004303,148.632950 136.842102,154.193604 131.225403,164.138641 
	C126.002205,173.386917 127.122292,185.971985 134.084656,193.484787 
	C135.293442,194.789108 137.282684,195.774643 139.054459,196.081512 
	C146.067078,197.296066 153.126312,198.267548 160.193634,199.118271 
	C161.606064,199.288269 163.541443,198.998871 164.531235,198.124161 
	C168.880463,194.280533 172.971283,190.144531 177.746201,185.811234 
	C217.225769,152.259491 263.073853,136.051392 315.696167,135.992142 
	C314.253723,133.750671 313.451080,132.173477 312.349640,130.843811 
	C303.171722,119.764214 288.069427,117.957558 276.051025,126.442879 
	C269.893799,130.790039 267.613739,130.674667 262.110870,125.661903 
	C257.817230,121.750664 253.059311,118.910606 246.438736,118.410599 
M111.069336,311.249023 
	C113.863144,298.625183 116.111412,285.848907 119.586136,273.415375 
	C124.129234,257.158844 132.271103,242.416138 141.379974,227.497528 
	C144.743607,222.726562 148.107239,217.955597 151.658783,212.918106 
	C118.447151,205.187164 83.205711,228.675980 76.150772,262.416382 
	C69.156967,295.864441 90.218201,325.906616 109.772873,332.479218 
	C110.128944,325.665375 110.484573,318.860229 111.069336,311.249023 
M62.154381,255.537537 
	C62.309750,255.234024 62.359901,254.914001 62.749420,254.172363 
	C62.797787,253.781448 62.846149,253.390533 63.223679,252.344406 
	C72.608810,224.948914 91.461708,207.268265 117.860954,199.107529 
	C115.715858,190.455200 113.723923,182.420609 111.714951,174.317352 
	C89.955673,186.047195 71.060463,201.858932 55.468609,221.517838 
	C32.174477,250.888107 18.849785,284.363464 16.571512,321.770630 
	C15.748657,335.281128 15.948820,349.194336 18.287477,362.464661 
	C20.802851,376.737762 31.070538,386.138550 44.459618,392.049133 
	C44.248821,387.880707 43.755089,384.239441 43.967941,380.639954 
	C44.189919,376.886169 45.092960,373.172668 45.737026,369.202423 
	C45.322765,368.977997 44.787601,368.595367 44.192047,368.378784 
	C21.595606,360.160645 14.703536,336.444092 29.332512,317.594971 
	C30.414850,316.200378 31.086851,313.977600 30.944162,312.221527 
	C29.631018,296.060394 36.822426,285.124664 51.990059,278.270264 
	C54.518841,277.653076 57.047626,277.035858 59.290314,276.488464 
	C60.199509,269.377136 61.056763,262.672028 62.154381,255.537537 
z"/>
<path fill="#FCC062" opacity="1.000000" stroke="none" 
	d="
M452.074280,201.807281 
	C448.633514,208.553055 448.668671,209.928223 454.064362,216.232834 
	C474.487366,240.096024 488.331329,267.274628 494.189056,298.133514 
	C496.472931,310.164978 497.361511,322.549622 497.836304,334.813995 
	C498.441559,350.447540 498.001556,366.122314 497.976593,381.779266 
	C497.960541,391.842255 493.830505,395.938873 483.659393,395.939148 
	C371.062439,395.942108 258.465485,395.931580 145.490143,395.535461 
	C148.323883,392.026184 151.602509,388.971283 154.735657,385.773865 
	C164.118347,376.198669 168.569580,364.680695 169.096191,351.268066 
	C169.772369,334.045898 169.711136,316.631897 172.417404,299.691925 
	C176.107010,276.596527 184.830017,254.926300 197.396362,235.011292 
	C208.016617,218.180389 220.811874,203.262146 236.024582,190.334198 
	C248.372314,179.840942 261.516907,170.673981 276.245941,163.918182 
	C285.420013,159.710266 294.776245,155.899567 304.050751,151.910614 
	C319.944519,150.163406 335.573334,152.299194 351.063721,155.488403 
	C375.258575,160.469711 397.501831,170.158127 417.983948,183.968430 
	C423.825989,187.907516 425.977081,187.626251 431.513489,183.049744 
	C438.534760,189.153839 445.219513,195.327759 452.074280,201.807281 
M230.284454,348.878448 
	C235.960922,344.656281 236.549820,336.211090 232.145599,331.263794 
	C227.576126,326.130890 220.339127,325.351807 214.842300,329.729919 
	C209.339386,334.112885 208.529526,340.516754 212.721741,346.497559 
	C216.781784,352.289795 223.025467,353.301239 230.284454,348.878448 
M414.880188,349.598480 
	C415.602478,348.914917 416.352814,348.258392 417.042603,347.543457 
	C421.979218,342.426941 422.180267,336.239929 417.591583,331.123230 
	C413.056946,326.066742 406.017029,325.427734 400.680847,329.588226 
	C395.762817,333.422668 394.352631,340.042358 397.388519,345.042511 
	C401.399139,351.648071 406.905945,353.289948 414.880188,349.598480 
M285.490540,300.833252 
	C286.332703,297.743713 287.874176,294.650848 287.859375,291.565460 
	C287.834900,286.447693 284.474182,283.000092 279.855011,281.238678 
	C275.328552,279.512604 269.114410,281.683502 266.000793,285.554810 
	C262.643707,289.728821 262.276428,294.407806 264.951782,298.918579 
	C269.452789,306.507690 277.115265,307.465881 285.490540,300.833252 
M362.526062,285.155548 
	C361.667206,288.076508 360.251038,290.963867 360.072510,293.925842 
	C359.758759,299.131500 363.407349,303.332245 368.853485,305.094482 
	C373.436554,306.577454 378.581757,304.774933 381.960785,300.502502 
	C385.329071,296.243774 385.307861,291.930054 382.874268,287.166046 
	C379.517487,280.594788 368.991119,278.089722 362.526062,285.155548 
M335.605682,334.490662 
	C335.233582,333.938507 334.861481,333.386383 334.489349,332.834259 
	C331.199402,327.953186 325.932709,325.809082 320.727081,327.231598 
	C315.672882,328.612732 311.214600,334.293793 311.182281,339.394318 
	C311.152130,344.151733 315.654846,349.654297 321.064636,351.471039 
	C325.265686,352.881866 331.383331,350.972198 333.919922,346.183624 
	C335.568604,343.071136 335.295746,338.940796 335.605682,334.490662 
M218.869949,230.132050 
	C217.350128,231.122223 215.656860,231.924042 214.341049,233.135757 
	C209.161057,237.905869 208.634293,243.665009 212.708160,249.134232 
	C216.578217,254.329834 222.926453,255.730835 228.702164,252.663971 
	C233.753571,249.981720 236.415710,243.401672 234.553116,238.202148 
	C232.263687,231.811096 226.049896,228.385040 218.869949,230.132050 
M410.583862,229.923126 
	C404.442383,228.860046 398.138977,232.359070 396.262238,237.873062 
	C394.371765,243.427399 397.261688,250.235992 402.746613,253.150055 
	C407.660645,255.760788 414.799133,253.889938 418.298981,249.074142 
	C423.408264,242.043716 420.337372,233.629623 410.583862,229.923126 
M316.800262,251.922104 
	C321.582794,255.088852 326.400848,255.148605 331.142761,251.914795 
	C335.366394,249.034470 337.587433,243.156311 335.816284,238.253876 
	C334.077881,233.441895 330.479004,230.364151 325.216522,229.594772 
	C320.527832,228.909225 315.236908,231.782806 312.895172,236.285400 
	C310.208832,241.450562 311.175018,245.967804 316.800262,251.922104 
z"/>
<path fill="#F8B42B" opacity="1.000000" stroke="none" 
	d="
M303.587646,151.817413 
	C294.776245,155.899567 285.420013,159.710266 276.245941,163.918182 
	C261.516907,170.673981 248.372314,179.840942 236.024582,190.334198 
	C220.811874,203.262146 208.016617,218.180389 197.396362,235.011292 
	C184.830017,254.926300 176.107010,276.596527 172.417404,299.691925 
	C169.711136,316.631897 169.772369,334.045898 169.096191,351.268066 
	C168.569580,364.680695 164.118347,376.198669 154.735657,385.773865 
	C151.602509,388.971283 148.323883,392.026184 145.022522,395.461731 
	C131.633453,395.777222 118.333618,395.777222 104.491592,395.777222 
	C105.115311,394.918945 105.465942,394.249664 105.982544,393.752960 
	C119.085945,381.154327 125.178253,365.657745 124.916283,347.608826 
	C124.618187,327.071564 125.703949,306.710846 131.191193,286.756897 
	C139.955383,254.886505 156.235962,227.406281 179.874329,204.462875 
	C207.081390,178.055664 239.533905,161.354874 276.868103,154.541275 
	C285.503967,152.965195 294.366364,152.630280 303.587646,151.817413 
z"/>
<path fill="#F3911E" opacity="1.000000" stroke="none" 
	d="
M51.196194,278.431061 
	C36.822426,285.124664 29.631018,296.060394 30.944162,312.221527 
	C31.086851,313.977600 30.414850,316.200378 29.332512,317.594971 
	C14.703536,336.444092 21.595606,360.160645 44.192047,368.378784 
	C44.787601,368.595367 45.322765,368.977997 45.737026,369.202423 
	C45.092960,373.172668 44.189919,376.886169 43.967941,380.639954 
	C43.755089,384.239441 44.248821,387.880707 44.459618,392.049133 
	C31.070538,386.138550 20.802851,376.737762 18.287477,362.464661 
	C15.948820,349.194336 15.748657,335.281128 16.571512,321.770630 
	C18.849785,284.363464 32.174477,250.888107 55.468609,221.517838 
	C71.060463,201.858932 89.955673,186.047195 111.714951,174.317352 
	C113.723923,182.420609 115.715858,190.455200 117.860954,199.107529 
	C91.461708,207.268265 72.608810,224.948914 62.835365,252.875854 
	C62.399647,253.797363 62.352238,254.187424 62.304832,254.577484 
	C62.359901,254.914001 62.309750,255.234024 61.688431,255.798294 
	C55.354065,262.384186 52.208199,269.929474 51.196194,278.431061 
z"/>
<path fill="#E03A3A" opacity="1.000000" stroke="none" 
	d="
M110.840195,312.055054 
	C110.484573,318.860229 110.128944,325.665375 109.772873,332.479218 
	C90.218201,325.906616 69.156967,295.864441 76.150772,262.416382 
	C83.205711,228.675980 118.447151,205.187164 151.658783,212.918106 
	C148.107239,217.955597 144.743607,222.726562 140.754120,227.753723 
	C138.517593,228.373291 136.867081,228.613358 135.302551,229.119324 
	C121.569649,233.560669 110.846230,241.491440 103.631195,254.414978 
	C98.055260,264.402527 96.871300,274.960999 98.227737,285.706390 
	C99.478851,295.617371 103.092346,304.972900 110.840195,312.055054 
z"/>
<path fill="#5E8D03" opacity="1.000000" stroke="none" 
	d="
M177.155792,186.114502 
	C172.971283,190.144531 168.880463,194.280533 164.531235,198.124161 
	C163.541443,198.998871 161.606064,199.288269 160.193634,199.118271 
	C153.126312,198.267548 146.067078,197.296066 139.054459,196.081512 
	C137.282684,195.774643 135.293442,194.789108 134.084656,193.484787 
	C127.122292,185.971985 126.002205,173.386917 131.225403,164.138641 
	C136.842102,154.193604 148.004303,148.632950 158.398178,150.602081 
	C168.958633,152.602737 168.958633,152.602768 173.994705,142.683472 
	C180.439423,129.989609 195.431305,124.706505 208.406784,130.556747 
	C216.871353,134.373169 217.881729,134.141647 224.157959,127.077820 
	C230.101135,120.388863 237.626099,117.737503 246.669067,119.034599 
	C246.593201,120.032593 246.337418,120.673111 245.973465,120.741959 
	C233.926285,123.020935 225.981476,130.369675 220.390076,140.907761 
	C219.801163,142.017685 217.306183,142.990463 215.982208,142.703629 
	C199.039536,139.032898 179.257751,150.585800 175.544388,169.433029 
	C174.480881,174.830795 173.100479,180.912491 177.155792,186.114502 
z"/>
<path fill="#79A902" opacity="1.000000" stroke="none" 
	d="
M177.450989,185.962860 
	C173.100479,180.912491 174.480881,174.830795 175.544388,169.433029 
	C179.257751,150.585800 199.039536,139.032898 215.982208,142.703629 
	C217.306183,142.990463 219.801163,142.017685 220.390076,140.907761 
	C225.981476,130.369675 233.926285,123.020935 245.973465,120.741959 
	C246.337418,120.673111 246.593201,120.032593 246.960480,119.287598 
	C253.059311,118.910606 257.817230,121.750664 262.110870,125.661903 
	C267.613739,130.674667 269.893799,130.790039 276.051025,126.442879 
	C288.069427,117.957558 303.171722,119.764214 312.349640,130.843811 
	C313.451080,132.173477 314.253723,133.750671 315.696167,135.992142 
	C263.073853,136.051392 217.225769,152.259491 177.450989,185.962860 
z"/>
<path fill="#BE1616" opacity="1.000000" stroke="none" 
	d="
M110.954758,311.652039 
	C103.092346,304.972900 99.478851,295.617371 98.227737,285.706390 
	C96.871300,274.960999 98.055260,264.402527 103.631195,254.414978 
	C110.846230,241.491440 121.569649,233.560669 135.302551,229.119324 
	C136.867081,228.613358 138.517593,228.373291 140.518051,227.998962 
	C132.271103,242.416138 124.129234,257.158844 119.586136,273.415375 
	C116.111412,285.848907 113.863144,298.625183 110.954758,311.652039 
z"/>
<path fill="#5E8D03" opacity="1.000000" stroke="none" 
	d="
M105.183121,369.197876 
	C97.347572,385.784729 83.655151,393.778687 65.948776,395.601318 
	C64.682365,395.731689 62.751492,394.065704 61.891491,392.740540 
	C55.636459,383.102203 59.166336,370.564056 69.541298,365.153564 
	C73.438141,363.121368 77.473907,361.284271 77.410202,355.447693 
	C86.910645,359.786682 96.046883,364.492279 105.183121,369.197876 
z"/>
<path fill="#527106" opacity="1.000000" stroke="none" 
	d="
M105.445190,368.947479 
	C96.046883,364.492279 86.910645,359.786682 77.429260,355.050964 
	C73.762939,346.344727 73.489120,338.200378 80.258446,332.027679 
	C89.887901,338.045197 99.112328,343.763733 108.256386,349.607971 
	C109.016495,350.093781 109.784821,351.546143 109.614090,352.351044 
	C108.452072,357.829468 107.039177,363.254700 105.445190,368.947479 
z"/>
<path fill="#78A802" opacity="1.000000" stroke="none" 
	d="
M60.993507,335.000763 
	C60.682575,339.794739 60.013676,344.601074 60.178936,349.378571 
	C60.301460,352.920654 58.844688,354.090546 55.759613,354.608704 
	C49.332199,355.688293 42.122482,352.274200 38.857548,346.423767 
	C35.325348,340.094421 35.866947,331.711090 41.319534,327.138672 
	C46.760754,322.575806 48.526211,318.150543 46.310383,311.118774 
	C45.280807,307.851501 47.476002,303.568024 48.550976,299.994232 
	C49.636112,305.768890 49.565308,311.571960 51.329224,316.750000 
	C53.535095,323.225464 54.659870,330.592926 60.993507,335.000763 
z"/>
<path fill="#5E8C03" opacity="1.000000" stroke="none" 
	d="
M61.267071,334.783569 
	C54.659870,330.592926 53.535095,323.225464 51.329224,316.750000 
	C49.565308,311.571960 49.636112,305.768890 48.841228,299.715149 
	C49.943432,297.819336 50.900303,296.197113 52.284306,295.127594 
	C58.613201,290.236725 60.464664,291.011749 63.015221,298.423737 
	C64.947571,304.039185 67.341270,309.526855 69.950653,314.865631 
	C71.314445,317.655914 71.126823,319.342407 69.167618,321.880005 
	C66.172562,325.759247 64.039581,330.304077 61.267071,334.783569 
z"/>
<path fill="#D9730E" opacity="1.000000" stroke="none" 
	d="
M51.593124,278.350647 
	C52.208199,269.929474 55.354065,262.384186 61.568245,256.013000 
	C61.056763,262.672028 60.199509,269.377136 59.290314,276.488464 
	C57.047626,277.035858 54.518841,277.653076 51.593124,278.350647 
z"/>
<path fill="#D9730E" opacity="1.000000" stroke="none" 
	d="
M62.527122,254.374924 
	C62.352238,254.187424 62.399647,253.797363 62.670784,253.203461 
	C62.846149,253.390533 62.797787,253.781448 62.527122,254.374924 
z"/>
<path fill="#F7941F" opacity="1.000000" stroke="none" 
	d="
M229.950180,349.056335 
	C223.025467,353.301239 216.781784,352.289795 212.721741,346.497559 
	C208.529526,340.516754 209.339386,334.112885 214.842300,329.729919 
	C220.339127,325.351807 227.576126,326.130890 232.145599,331.263794 
	C236.549820,336.211090 235.960922,344.656281 229.950180,349.056335 
z"/>
<path fill="#F7941F" opacity="1.000000" stroke="none" 
	d="
M414.592163,349.842163 
	C406.905945,353.289948 401.399139,351.648071 397.388519,345.042511 
	C394.352631,340.042358 395.762817,333.422668 400.680847,329.588226 
	C406.017029,325.427734 413.056946,326.066742 417.591583,331.123230 
	C422.180267,336.239929 421.979218,342.426941 417.042603,347.543457 
	C416.352814,348.258392 415.602478,348.914917 414.592163,349.842163 
z"/>
<path fill="#F7941F" opacity="1.000000" stroke="none" 
	d="
M285.253448,301.130432 
	C277.115265,307.465881 269.452789,306.507690 264.951782,298.918579 
	C262.276428,294.407806 262.643707,289.728821 266.000793,285.554810 
	C269.114410,281.683502 275.328552,279.512604 279.855011,281.238678 
	C284.474182,283.000092 287.834900,286.447693 287.859375,291.565460 
	C287.874176,294.650848 286.332703,297.743713 285.253448,301.130432 
z"/>
<path fill="#F7941F" opacity="1.000000" stroke="none" 
	d="
M362.769043,284.856445 
	C368.991119,278.089722 379.517487,280.594788 382.874268,287.166046 
	C385.307861,291.930054 385.329071,296.243774 381.960785,300.502502 
	C378.581757,304.774933 373.436554,306.577454 368.853485,305.094482 
	C363.407349,303.332245 359.758759,299.131500 360.072510,293.925842 
	C360.251038,290.963867 361.667206,288.076508 362.769043,284.856445 
z"/>
<path fill="#F7941F" opacity="1.000000" stroke="none" 
	d="
M335.744720,334.878571 
	C335.295746,338.940796 335.568604,343.071136 333.919922,346.183624 
	C331.383331,350.972198 325.265686,352.881866 321.064636,351.471039 
	C315.654846,349.654297 311.152130,344.151733 311.182281,339.394318 
	C311.214600,334.293793 315.672882,328.612732 320.727081,327.231598 
	C325.932709,325.809082 331.199402,327.953186 334.489349,332.834259 
	C334.861481,333.386383 335.233582,333.938507 335.744720,334.878571 
z"/>
<path fill="#F7941F" opacity="1.000000" stroke="none" 
	d="
M219.239990,230.047546 
	C226.049896,228.385040 232.263687,231.811096 234.553116,238.202148 
	C236.415710,243.401672 233.753571,249.981720 228.702164,252.663971 
	C222.926453,255.730835 216.578217,254.329834 212.708160,249.134232 
	C208.634293,243.665009 209.161057,237.905869 214.341049,233.135757 
	C215.656860,231.924042 217.350128,231.122223 219.239990,230.047546 
z"/>
<path fill="#F7941F" opacity="1.000000" stroke="none" 
	d="
M410.962921,229.967712 
	C420.337372,233.629623 423.408264,242.043716 418.298981,249.074142 
	C414.799133,253.889938 407.660645,255.760788 402.746613,253.150055 
	C397.261688,250.235992 394.371765,243.427399 396.262238,237.873062 
	C398.138977,232.359070 404.442383,228.860046 410.962921,229.967712 
z"/>
<path fill="#F7941F" opacity="1.000000" stroke="none" 
	d="
M316.476074,251.716782 
	C311.175018,245.967804 310.208832,241.450562 312.895172,236.285400 
	C315.236908,231.782806 320.527832,228.909225 325.216522,229.594772 
	C330.479004,230.364151 334.077881,233.441895 335.816284,238.253876 
	C337.587433,243.156311 335.366394,249.034470 331.142761,251.914795 
	C326.400848,255.148605 321.582794,255.088852 316.476074,251.716782 
z"/>
</svg>